<svg width="256" height="288" viewBox="-10 -4 50 50" fill="none" xmlns="http://www.w3.org/2000/svg">
  <defs>
    <linearGradient id="docGradient" x1="0" y1="0" x2="32" y2="36" gradientUnits="userSpaceOnUse">
      <stop stopColor="#00E676" />
      <stop offset="1" stopColor="#00A65A" />
    </linearGradient>
    <linearGradient id="foldGradient" x1="16" y1="0" x2="32" y2="10" gradientUnits="userSpaceOnUse">
      <stop stopColor="#00C853" />
      <stop offset="1" stopColor="#007936" />
    </linearGradient>
    <filter id="shadow" x="-20%" y="-20%" width="140%" height="140%">
      <feDropShadow dx="0" dy="4" stdDeviation="6" flood-color="#00A65A" flood-opacity="0.2"/>
    </filter>
    <filter id="glow" x="-50%" y="-50%" width="200%" height="200%">
      <feDropShadow dx="0" dy="0" stdDeviation="4" flood-color="#0084FF" flood-opacity="0.6"/>
    </filter>
  </defs>
  
  <g filter="url(#shadow)">
    <path d="M14 0H28C30.2091 0 32 1.79086 32 4V32C32 34.2091 30.2091 36 28 36H4C1.79086 36 0 34.2091 0 32V10L14 0Z" fill="url(#docGradient)"/>
    <path d="M0 10H10C12.2091 10 14 8.20914 14 6V0L0 10Z" fill="url(#foldGradient)"/>
    
    <rect x="2" y="16" width="16" height="2.5" rx="1.25" fill="#ffffff" opacity="0.9"/>
    <rect x="2" y="22" width="22" height="2.5" rx="1.25" fill="#ffffff" opacity="0.9"/>
    <rect x="2" y="28" width="16" height="2.5" rx="1.25" fill="#ffffff" opacity="0.9"/>
    
    <rect x="-6" y="16" width="8" height="2.5" rx="1.25" fill="#0084FF" filter="url(#glow)"/>
    <rect x="-6" y="22" width="12" height="2.5" rx="1.25" fill="#0084FF" filter="url(#glow)"/>
    <rect x="-6" y="28" width="8" height="2.5" rx="1.25" fill="#0084FF" filter="url(#glow)"/>
  </g>
</svg>
