<svg viewBox="0 0 36 36" fill="none" xmlns="http://www.w3.org/2000/svg">
  <defs>
    <linearGradient id="docGradient" x1="2" y1="0" x2="34" y2="36" gradientUnits="userSpaceOnUse">
      <stop stopColor="#00E676" />
      <stop offset="1" stopColor="#00A65A" />
    </linearGradient>
    <linearGradient id="foldGradient" x1="18" y1="0" x2="34" y2="10" gradientUnits="userSpaceOnUse">
      <stop stopColor="#00C853" />
      <stop offset="1" stopColor="#007936" />
    </linearGradient>
  </defs>
  <g transform="translate(2, 0)">
    <path d="M14 0H28C30.2091 0 32 1.79086 32 4V32C32 34.2091 30.2091 36 28 36H4C1.79086 36 0 34.2091 0 32V10L14 0Z" fill="url(#docGradient)"/>
    <path d="M0 10H10C12.2091 10 14 8.20914 14 6V0L0 10Z" fill="url(#foldGradient)"/>
    <rect x="2" y="16" width="16" height="2.5" rx="1.25" fill="#ffffff" opacity="0.9"/>
    <rect x="2" y="22" width="22" height="2.5" rx="1.25" fill="#ffffff" opacity="0.9"/>
    <rect x="2" y="28" width="16" height="2.5" rx="1.25" fill="#ffffff" opacity="0.9"/>
  </g>
</svg>